<svg xmlns="http://www.w3.org/2000/svg" viewBox="0 0 32 32">
  <path fill="#1877F2" d="M32 16C32 7.164 24.836 0 16 0S0 7.164 0 16c0 7.732 5.472 14.186 12.75 15.674V20.89h-3.84V16h3.84v-3.73c0-3.788 2.257-5.883 5.71-5.883 1.654 0 3.385.295 3.385.295v3.73h-1.907c-1.879 0-2.464 1.166-2.464 2.362V16h4.19l-.67 4.89h-3.52v10.784C26.528 30.186 32 23.732 32 16z"/>
  <path fill="#FFF" d="M22.096 20.89l.67-4.89h-4.19v-3.226c0-1.196.585-2.362 2.464-2.362h1.907v-3.73s-1.731-.295-3.385-.295c-3.453 0-5.71 2.095-5.71 5.883V16h-3.84v4.89h3.84v10.784c.715.11 1.446.166 2.188.166.742 0 1.473-.056 2.188-.166V20.89h3.52z"/>
</svg>