<svg xmlns="http://www.w3.org/2000/svg" width="1439" height="365" fill="none" viewBox="0 0 1439 365"><path fill="#F7F2E6" d="M0 15.711V365h1439V76.705c-7-8.176-19.05-1.183-20.67 5.271 4.2-9.251-24.32-16.136-21.52-3.227-1.3 12.586-22.72 1.29-21.42-4.518-4.09.86-19.06 1.506-21.32-3.765 1.83 11.725-22.6-4.841-20.55-13.447-3.66 4.088-19.59 3.335-21.32.646 2.8 12.478-22.71 13.339-22.71 3.334 0 3.335-25.62-18.395-25.62-13.984 0 0-23.35 10.65-23.35 16.889 0 11.295-27.99 3.12-27.99-.215 0-1.184-24.54 12.908-24.54 9.681 0-6.777-13.99 28.184-13.99 26.355 0 7.531-22.39-18.61-22.39-9.573 0-9.36-23.25 11.94-23.25 13.339 0-4.088-20.99-9.467-20.99-6.347 0-4.518-16.04-15.383-16.04-23.02 0 10.434-22.39.967-22.39-1.507 0-11.295-20.23-12.156-20.23-9.036 0 11.51-26.05 4.733-26.05 10.542 0-.753-17.01-14.2-17.01-19.578 0 .538-22.385-6.24-22.385-1.506 0 .323-24.003-6.67-24.003 3.765 0 6.24-14.962-18.503-14.962-26.678 0 3.227-23.357.645-23.357 3.335 0 5.809-24.111-6.993-24.111-8.714 0 9.574-12.809 25.925-12.809 22.913 0-.538-21.635-6.562-21.635 1.937 0-3.228-17.652 6.346-17.652 14.952 0-8.068-21.42 3.335-21.42-1.936 0 10.972-16.361-34.423-16.361-19.148 0-.538-22.604 7.315-22.604 6.885 0 5.486-17.76-22.376-17.76-16.352 0 5.487-23.895 17.32-23.895 15.06 0 1.507-18.083-32.271-18.083-22.16 0 14.093-21.42-9.143-21.42 1.507 0-3.658-21.205 8.39-21.205 1.183 0 2.367-21.312 7.96-21.312 4.518 0 6.024-22.819-19.793-22.819-11.51 0-6.132-23.249-6.992-23.249-5.379 0-6.24-24.649 11.833-24.649 14.307 0-.753-23.465-14.952-23.465-3.227 0 8.498-23.034-16.674-23.034-8.606 0 3.765-24.326 21.407-24.326 9.252 0 17.642-22.174-15.49-22.174-20.224 0-8.498-22.711 3.55-22.711 8.606 0-10.973-22.389-14.63-22.389 4.733 0 7.638-21.312-12.263-21.312-11.08 0 .215-22.388 1.614-22.388 6.562 0 .645-21.851 8.606-21.851-2.367 0 5.81-21.635-7.637-21.635-15.167 0-.323-22.173 13.554-22.173 11.295 0 7.1-21.85 2.797-21.85 8.82 0-7.637-21.85-.322-21.85-1.398 0-7.53-21.958-7.1-21.958-.645 0-6.024-21.528-3.98-21.528 4.088 0 3.55-22.604-12.91-22.604-4.196 0 2.044-21.527-7.853-21.527 4.949 0 .968-22.496 2.904-22.496-.753 0 .968-21.743-.108-21.743 3.657 0-23.128-22.604.968-22.604-4.303 0 4.41-20.343 21.084-20.343 19.47 0 14.523-21.097-10.541-23.25-17.426-.323-12.801-30.03 14.63-23.572 15.706-4.521-3.228-16.469.968-22.712-6.24 5.382.646-20.235-12.8-21.527-10.004-3.875-4.84-22.389 1.614-22.82-2.904 2.154-1.399-3.659-3.12-9.902-4.088z"/></svg>