<svg xmlns="http://www.w3.org/2000/svg" viewBox="0 0 32 32">
  <path fill="#25D366" d="M16 .396C7.164.396 0 7.56 0 16.396c0 2.89.755 5.603 2.065 7.962L0 32l7.82-2.047a15.93 15.93 0 0 0 8.18 2.244c8.836 0 16-7.164 16-16S24.836.396 16 .396z"/>
  <path fill="#FFF" d="M24.507 19.243c-.365-.182-2.158-1.064-2.49-1.185-.332-.121-.574-.182-.816.182-.242.365-.937 1.185-1.149 1.428-.212.242-.424.273-.789.091-.365-.182-1.54-.567-2.933-1.808-1.083-.966-1.815-2.159-2.028-2.524-.212-.365-.023-.562.16-.744.165-.164.365-.424.547-.636.182-.212.242-.365.365-.607.121-.242.061-.455-.03-.637-.091-.182-.816-1.968-1.118-2.693-.295-.71-.595-.613-.816-.624-.212-.011-.455-.013-.698-.013s-.637.091-.97.455c-.332.365-1.27 1.24-1.27 3.02s1.301 3.5 1.483 3.743c.182.242 2.562 3.912 6.21 5.486.868.375 1.545.599 2.073.766.87.277 1.662.238 2.287.144.698-.104 2.158-.882 2.462-1.735.303-.852.303-1.582.212-1.735-.091-.152-.332-.242-.698-.424z"/>
</svg>