<svg xmlns="http://www.w3.org/2000/svg" width="25" height="17" fill="none" viewBox="0 0 25 17"><path fill="#FF9C00" d="M24.42 5.833H0V.921A.42.42 0 0 1 .421.5H24a.42.42 0 0 1 .42.421z"/><path fill="#6BA104" d="M24 16.5H.42A.42.42 0 0 1 0 16.08v-4.912h24.42v4.912a.42.42 0 0 1-.42.421"/><path fill="#F5F5F5" d="M24.42 5.833H0v5.333h24.42z"/><path fill="#41479B" d="M12.21 10.764a2.267 2.267 0 1 1 0-4.533 2.267 2.267 0 0 1 0 4.533m0-4.105a1.843 1.843 0 1 0 0 3.685 1.843 1.843 0 0 0 0-3.685"/><path fill="#41479B" d="M12.21 8.757a.256.256 0 1 0 0-.512.256.256 0 0 0 0 .512"/><path fill="#41479B" d="m12.21 8.539-.652.065-1.4-.065V8.46l1.4-.065.652.065zM12.21 8.539l.652.065 1.4-.065V8.46l-1.4-.065-.652.065z"/><path fill="#41479B" d="m12.172 8.502-.066-.652.066-1.4h.077l.065 1.4-.065.652z"/><path fill="#41479B" d="m12.172 8.499-.066.652.066 1.4h.077l.065-1.4-.065-.652z"/><path fill="#41479B" d="m12.184 8.527-.508-.415-.944-1.037.055-.054 1.037.943.414.508zM12.184 8.528l.414.508 1.037.944.055-.054-.944-1.038-.508-.414z"/><path fill="#41479B" d="m12.184 8.474.414-.508 1.037-.944.055.055-.944 1.037-.508.415z"/><path fill="#41479B" d="m12.184 8.474-.508.414-.944 1.038.055.054 1.037-.944.414-.508z"/><path fill="#41479B" d="m12.225 8.536-.577.311-1.319.475-.029-.071 1.27-.597.627-.19z"/><path fill="#41479B" d="m12.225 8.537.628-.189 1.27-.597-.03-.07-1.319.474-.577.31z"/><path fill="#41479B" d="m12.176 8.515-.311-.577-.475-1.319.07-.03.598 1.27.19.628zM12.176 8.515l.189.628.597 1.27.071-.03-.475-1.318-.31-.578z"/><path fill="#41479B" d="m12.196 8.537-.628-.189-1.27-.597.03-.07 1.319.474.577.31z"/><path fill="#41479B" d="m12.196 8.536.577.311 1.319.475.029-.071-1.27-.597-.628-.19z"/><path fill="#41479B" d="m12.176 8.486.189-.628.597-1.27.071.03-.475 1.318-.31.578z"/><path fill="#41479B" d="m12.176 8.485-.311.578-.475 1.318.07.03.598-1.27.19-.628z"/><path fill="#F5F5F5" d="M12.21 8.847a.347.347 0 1 0 0-.694.347.347 0 0 0 0 .694"/><path fill="#41479B" d="M12.21 8.708a.208.208 0 1 0 0-.416.208.208 0 0 0 0 .416"/></svg>